<?xml version="1.0" encoding="utf-8"?>
<!-- Generator: Adobe Illustrator 21.1.0, SVG Export Plug-In . SVG Version: 6.00 Build 0)  -->
<svg version="1.1" id="Layer_1" xmlns="http://www.w3.org/2000/svg" xmlns:xlink="http://www.w3.org/1999/xlink" x="0px" y="0px"
	 viewBox="0 0 280 652.6" enable-background="new 0 0 280 652.6" xml:space="preserve">
<path fill="#0F1941" d="M262.6,399.3c-11.1-11-25.8-17.3-41.1-17.3h-0.1c-31.8,0-57.4,26.5-57.4,58.5v0.4v70.5
	c0,19.5-16,35.6-35.5,35.6h-0.3c-19.5,0-35.3-16.1-35.3-35.6V332.6c0-6.2-5.3-11.2-11.5-11.2s-11.5,5-11.5,11.2v178.8
	c0,31.8,26.4,57.6,58.3,57.6h0.3c31.5,0,57-25.3,57.5-56.7c0-0.2,0-0.3,0-0.5v-0.4v-70.5v-0.4c0-19.3,16.2-35.7,35.3-35.7
	c19.4,0,35.7,16.4,35.7,35.7v200.9c0,6.2,5.3,11.2,11.5,11.2s11.5-5,11.5-11.2V440.5C280,425.1,273.7,410.4,262.6,399.3z"/>
<g>
	<rect fill="#0F1941" width="164" height="294"/>
</g>
<g>
	<path fill="#FFB511" d="M94,1v249.4c0,6.9-5.6,12.4-12.5,12.4S69,257.3,69,250.4V1"/>
</g>
<path fill="#FFB511" d="M0,294l74.5,98.9c3.5,4.7,10.5,4.7,14.1,0L164,294H0z"/>
</svg>
